<svg width="31" height="31" viewBox="0 0 31 31" fill="none" xmlns="http://www.w3.org/2000/svg">
<path d="M15.5 30.8492C23.7843 30.8492 30.5 24.1335 30.5 15.8492C30.5 7.56497 23.7843 0.849243 15.5 0.849243C7.21573 0.849243 0.5 7.56497 0.5 15.8492C0.5 24.1335 7.21573 30.8492 15.5 30.8492Z" fill="white"/>
<path fill-rule="evenodd" clip-rule="evenodd" d="M15.4999 7.76721C11.0396 7.76721 7.41797 11.3889 7.41797 15.8491C7.41797 20.3094 11.0396 23.9311 15.4999 23.9311C19.9602 23.9311 23.5818 20.3094 23.5818 15.8491C23.5818 11.3889 19.9602 7.76721 15.4999 7.76721ZM15.4999 9.19822C19.1703 9.19822 22.1508 12.1787 22.1508 15.8491C22.1508 19.5196 19.1703 22.5001 15.4999 22.5001C11.8295 22.5001 8.84898 19.5196 8.84898 15.8491C8.84898 12.1787 11.8295 9.19822 15.4999 9.19822Z" fill="#B4B4B6"/>
<path fill-rule="evenodd" clip-rule="evenodd" d="M14.3196 15.4449C14.1802 17.0478 13.8132 18.6019 13.2394 20.1142C13.1 20.4836 13.2859 20.8971 13.6552 21.0365C14.0246 21.1759 14.4381 20.99 14.5775 20.6207C14.984 19.5497 15.293 18.4602 15.502 17.3498C15.7111 18.4602 16.0201 19.5497 16.4266 20.6207C16.566 20.99 16.9795 21.1759 17.3489 21.0365C17.7183 20.8971 17.9041 20.4836 17.7647 20.1142C17.1909 18.6042 16.8239 17.0501 16.6845 15.4495C17.5417 15.4077 18.3966 15.3171 19.2538 15.1777C19.6441 15.115 19.9089 14.7456 19.8438 14.3577C19.7811 13.9674 19.4141 13.7026 19.0238 13.7676C16.6752 14.1486 14.3266 14.1347 11.9756 13.7676C11.5854 13.7072 11.2207 13.9744 11.1579 14.3647C11.0975 14.7549 11.3647 15.1197 11.755 15.1824C12.6098 15.3171 13.4647 15.4054 14.3219 15.4495L14.3196 15.4449Z" fill="#E0E0E0"/>
<path fill-rule="evenodd" clip-rule="evenodd" d="M16.7895 12.1625C16.7895 12.8756 16.2111 13.4518 15.5002 13.4518C14.7894 13.4518 14.2109 12.8733 14.2109 12.1625C14.2109 11.4516 14.7894 10.8732 15.5002 10.8732C16.2111 10.8732 16.7895 11.4516 16.7895 12.1625Z" fill="#E0E0E0"/>
</svg>
