<svg width="31" height="31" viewBox="0 0 31 31" fill="none" xmlns="http://www.w3.org/2000/svg">
<path d="M15.5 30.8492C23.7843 30.8492 30.5 24.1335 30.5 15.8492C30.5 7.56497 23.7843 0.849243 15.5 0.849243C7.21574 0.849243 0.5 7.56497 0.5 15.8492C0.5 24.1335 7.21574 30.8492 15.5 30.8492Z" fill="#42892E"/>
<path d="M15.4997 24.1217C20.0607 24.1217 23.7582 20.4242 23.7582 15.8632C23.7582 11.3022 20.0607 7.60474 15.4997 7.60474C10.9387 7.60474 7.24121 11.3022 7.24121 15.8632C7.24121 20.4242 10.9387 24.1217 15.4997 24.1217Z" fill="white"/>
<path d="M14.7776 19.9611C14.4337 19.9611 14.0899 19.8311 13.8274 19.5685L11.509 17.2501C10.984 16.7251 10.984 15.8749 11.509 15.3499C12.034 14.8249 12.8842 14.8249 13.4092 15.3499L14.7776 16.7182L18.4642 13.0315C18.9892 12.5064 19.8394 12.5064 20.3645 13.0315C20.8895 13.5565 20.8895 14.4067 20.3645 14.9317L15.7276 19.5685C15.4651 19.8311 15.1214 19.9611 14.7776 19.9611V19.9611Z" fill="#003057"/>
</svg>
