<svg width="58" height="18" viewBox="0 0 58 18" fill="none" xmlns="http://www.w3.org/2000/svg">
<rect y="0.150757" width="58" height="17" rx="8.5" fill="#F6BE00"/>
<path d="M15.1846 6.96375C14.9818 6.96375 14.8018 7.00362 14.6445 7.08337C14.4896 7.16085 14.3586 7.27364 14.2515 7.42175C14.1466 7.56986 14.0669 7.74874 14.0122 7.95837C13.9575 8.16801 13.9302 8.40385 13.9302 8.66589C13.9302 9.01908 13.9735 9.321 14.0601 9.57166C14.1489 9.82003 14.2856 10.0103 14.4702 10.1425C14.6548 10.2723 14.8929 10.3373 15.1846 10.3373C15.3874 10.3373 15.5902 10.3145 15.793 10.2689C15.998 10.2233 16.2202 10.1584 16.4595 10.0741V10.9628C16.2384 11.0539 16.0208 11.1189 15.8066 11.1576C15.5924 11.1986 15.3521 11.2191 15.0854 11.2191C14.5705 11.2191 14.1466 11.1132 13.814 10.9012C13.4836 10.6871 13.2386 10.3885 13.0791 10.0057C12.9196 9.62065 12.8398 9.17175 12.8398 8.65906C12.8398 8.2808 12.8911 7.93445 12.9937 7.62C13.0962 7.30554 13.2466 7.03324 13.4448 6.8031C13.6431 6.57296 13.888 6.39522 14.1797 6.2699C14.4714 6.14457 14.8063 6.08191 15.1846 6.08191C15.4329 6.08191 15.6813 6.11381 15.9297 6.17761C16.1803 6.23914 16.4196 6.32458 16.6475 6.43396L16.3057 7.29529C16.1188 7.20642 15.9308 7.12895 15.7417 7.06287C15.5526 6.99679 15.3669 6.96375 15.1846 6.96375ZM22.0615 8.64539C22.0615 9.03048 22.0137 9.38139 21.918 9.69812C21.8223 10.0126 21.6764 10.2837 21.4805 10.5116C21.2868 10.7395 21.0407 10.9149 20.7422 11.038C20.4437 11.1587 20.0905 11.2191 19.6826 11.2191C19.2747 11.2191 18.9215 11.1587 18.623 11.038C18.3245 10.9149 18.0773 10.7395 17.8813 10.5116C17.6877 10.2837 17.543 10.0114 17.4473 9.6947C17.3516 9.37797 17.3037 9.02592 17.3037 8.63855C17.3037 8.1213 17.388 7.67126 17.5566 7.28845C17.7275 6.90336 17.9896 6.60486 18.3428 6.39294C18.696 6.18103 19.1449 6.07507 19.6895 6.07507C20.2318 6.07507 20.6772 6.18103 21.0259 6.39294C21.3768 6.60486 21.6366 6.90336 21.8052 7.28845C21.9761 7.67354 22.0615 8.12585 22.0615 8.64539ZM18.4146 8.64539C18.4146 8.99402 18.4578 9.2948 18.5444 9.54773C18.6333 9.79838 18.7712 9.99207 18.958 10.1288C19.1449 10.2632 19.3864 10.3304 19.6826 10.3304C19.9834 10.3304 20.2272 10.2632 20.4141 10.1288C20.6009 9.99207 20.7365 9.79838 20.8208 9.54773C20.9074 9.2948 20.9507 8.99402 20.9507 8.64539C20.9507 8.1213 20.8527 7.70886 20.6567 7.40808C20.4608 7.1073 20.1383 6.95691 19.6895 6.95691C19.391 6.95691 19.1471 7.02527 18.958 7.16199C18.7712 7.29643 18.6333 7.49011 18.5444 7.74304C18.4578 7.99369 18.4146 8.29447 18.4146 8.64539ZM27.5303 11.1508H26.1836L24.0098 7.37048H23.979C23.9881 7.52771 23.9961 7.68608 24.0029 7.84558C24.0098 8.00509 24.0166 8.16459 24.0234 8.3241C24.0303 8.48132 24.0371 8.63969 24.0439 8.79919V11.1508H23.0972V6.15369H24.4336L26.604 9.89636H26.6279C26.6234 9.74141 26.6177 9.58761 26.6108 9.43494C26.604 9.28227 26.5972 9.1296 26.5903 8.97693C26.5858 8.82426 26.5812 8.67159 26.5767 8.51892V6.15369H27.5303V11.1508ZM30.7192 11.1508H29.6597V7.03552H28.3027V6.15369H32.0762V7.03552H30.7192V11.1508ZM35.9043 11.1508L35.542 9.9613H33.7202L33.3579 11.1508H32.2163L33.98 6.13318H35.2754L37.0459 11.1508H35.9043ZM35.2891 9.07263L34.9268 7.91052C34.904 7.83305 34.8732 7.73393 34.8345 7.61316C34.798 7.49011 34.7604 7.36593 34.7217 7.2406C34.6852 7.113 34.6556 7.00248 34.6328 6.90906C34.61 7.00248 34.5781 7.11869 34.5371 7.25769C34.4984 7.39441 34.4608 7.52429 34.4243 7.64734C34.3879 7.77039 34.3617 7.85811 34.3457 7.91052L33.9868 9.07263H35.2891ZM39.8008 6.96375C39.598 6.96375 39.418 7.00362 39.2607 7.08337C39.1058 7.16085 38.9748 7.27364 38.8677 7.42175C38.7629 7.56986 38.6831 7.74874 38.6284 7.95837C38.5737 8.16801 38.5464 8.40385 38.5464 8.66589C38.5464 9.01908 38.5897 9.321 38.6763 9.57166C38.7651 9.82003 38.9019 10.0103 39.0864 10.1425C39.271 10.2723 39.5091 10.3373 39.8008 10.3373C40.0036 10.3373 40.2064 10.3145 40.4092 10.2689C40.6143 10.2233 40.8364 10.1584 41.0757 10.0741V10.9628C40.8547 11.0539 40.637 11.1189 40.4229 11.1576C40.2087 11.1986 39.9683 11.2191 39.7017 11.2191C39.1867 11.2191 38.7629 11.1132 38.4302 10.9012C38.0998 10.6871 37.8548 10.3885 37.6953 10.0057C37.5358 9.62065 37.4561 9.17175 37.4561 8.65906C37.4561 8.2808 37.5073 7.93445 37.6099 7.62C37.7124 7.30554 37.8628 7.03324 38.061 6.8031C38.2593 6.57296 38.5042 6.39522 38.7959 6.2699C39.0876 6.14457 39.4225 6.08191 39.8008 6.08191C40.0492 6.08191 40.2975 6.11381 40.5459 6.17761C40.7965 6.23914 41.0358 6.32458 41.2637 6.43396L40.9219 7.29529C40.735 7.20642 40.547 7.12895 40.3579 7.06287C40.1688 6.99679 39.9831 6.96375 39.8008 6.96375ZM44.0698 11.1508H43.0103V7.03552H41.6533V6.15369H45.4268V7.03552H44.0698V11.1508Z" fill="#003057"/>
</svg>
