<svg width="31" height="31" viewBox="0 0 31 31" fill="none" xmlns="http://www.w3.org/2000/svg">
<path d="M15.5 30.8492C23.7843 30.8492 30.5 24.1335 30.5 15.8492C30.5 7.56497 23.7843 0.849243 15.5 0.849243C7.21575 0.849243 0.5 7.56497 0.5 15.8492C0.5 24.1335 7.21575 30.8492 15.5 30.8492Z" fill="white"/>
<path d="M23.2216 11.2078C22.7523 9.87903 21.6256 8.85688 20.2806 8.54094C17.9668 7.99967 16.1246 9.56309 15.4997 10.188C14.8748 9.56309 13.0303 7.99967 10.7189 8.54094C9.3738 8.85688 8.24713 9.87903 7.77788 11.2078C7.11116 13.0941 7.17389 16.365 11.2694 19.8473L15.5021 23.2668L19.7347 19.8473C23.8279 16.365 23.8906 13.0941 23.2262 11.2078H23.2216Z" fill="#B4B4B6"/>
<path d="M15.4997 10.188C14.8748 9.56309 13.0303 7.99967 10.7189 8.54094C9.3738 8.85688 8.24713 9.87903 7.77788 11.2078C7.11116 13.0941 7.17389 16.365 11.2694 19.8473L15.5021 23.2668" fill="#E0E0E0"/>
</svg>
