<?xml version="1.0" encoding="utf-8"?>
<!-- Generator: Adobe Illustrator 26.3.1, SVG Export Plug-In . SVG Version: 6.00 Build 0)  -->
<svg version="1.1" id="Layer_1" xmlns="http://www.w3.org/2000/svg" xmlns:xlink="http://www.w3.org/1999/xlink" x="0px" y="0px"
	 viewBox="0 0 57 25.5" style="enable-background:new 0 0 57 25.5;" xml:space="preserve">
<style type="text/css">
	.st0{fill:#F6BE00;}
	.st1{fill:#003057;stroke:#003057;stroke-width:0.45;}
	.st2{fill:#003057;}
</style>
<path class="st0" d="M0,12.8C0,5.7,5.7,0,12.8,0h31.5C51.3,0,57,5.7,57,12.8c0,7-5.7,12.8-12.8,12.8H12.8C5.7,25.5,0,19.8,0,12.8z"
	/>
<path class="st1" d="M19.7,11.9v-0.2h-0.2h-2.7V9V8.8h-0.2h-1.7h-0.2V9v2.7H12h-0.2v0.2v1.7v0.2H12h2.7v2.7v0.2h0.2h1.7h0.2v-0.2
	v-2.7h2.7h0.2v-0.2V11.9z"/>
<path class="st2" d="M31.2,16.5l-0.5-1.8h-2.7l-0.5,1.8h-1.7L28.3,9h1.9l2.7,7.5H31.2z M30.3,13.4l-0.5-1.7c0-0.1-0.1-0.3-0.1-0.4
	c-0.1-0.2-0.1-0.4-0.2-0.6c-0.1-0.2-0.1-0.4-0.1-0.5c0,0.1-0.1,0.3-0.1,0.5c-0.1,0.2-0.1,0.4-0.2,0.6c-0.1,0.2-0.1,0.3-0.1,0.4
	l-0.5,1.7H30.3z M33.9,16.5V9h1.6v6.2h3v1.3H33.9z M39.8,16.5V9h1.6v6.2h3v1.3H39.8z"/>
</svg>
