<svg width="31" height="31" viewBox="0 0 31 31" fill="none" xmlns="http://www.w3.org/2000/svg">
<path d="M15.5 30.8492C23.7843 30.8492 30.5 24.1335 30.5 15.8492C30.5 7.56497 23.7843 0.849243 15.5 0.849243C7.21572 0.849243 0.5 7.56497 0.5 15.8492C0.5 24.1335 7.21572 30.8492 15.5 30.8492Z" fill="#C69214"/>
<path d="M15.4997 23.9335L19.7393 14.0396L17.7903 11.4425C16.645 9.91388 14.3521 9.91388 13.2069 11.4425L11.2578 14.0396L15.4974 23.9335H15.4997Z" fill="white"/>
<path d="M12.6728 12.1649H18.3271V9.80004H12.6728V12.1649Z" fill="#003057"/>
<path d="M15.1866 15.4382V23.2018L15.5002 23.9336L15.8138 23.2018V15.4382C16.0461 15.322 16.2064 15.0851 16.2064 14.8086C16.2064 14.4184 15.8904 14.1024 15.5002 14.1024C15.1099 14.1024 14.7939 14.4184 14.7939 14.8086C14.7939 15.0851 14.9543 15.322 15.1866 15.4382Z" fill="#003057"/>
<path d="M15.4512 11.3286L9.90139 9.72103C9.72948 9.67225 9.72948 9.42601 9.90139 9.37722L15.4512 7.76966C15.4837 7.76037 15.5185 7.76037 15.5511 7.76966L21.1009 9.37722C21.2728 9.42601 21.2728 9.67225 21.1009 9.72103L15.5511 11.3286C15.5185 11.3379 15.4837 11.3379 15.4512 11.3286Z" fill="#003057"/>
</svg>
