<svg width="31" height="31" viewBox="0 0 31 31" fill="none" xmlns="http://www.w3.org/2000/svg">
<path d="M15.5 30.8492C23.7843 30.8492 30.5 24.1335 30.5 15.8492C30.5 7.56497 23.7843 0.849243 15.5 0.849243C7.21575 0.849243 0.5 7.56497 0.5 15.8492C0.5 24.1335 7.21575 30.8492 15.5 30.8492Z" fill="white"/>
<path d="M15.5 21.4014C15.2282 21.4014 15.0098 21.1807 15.0098 20.9112V16.0374C15.0098 15.7656 15.2305 15.5472 15.5 15.5472C15.7694 15.5472 15.9901 15.7679 15.9901 16.0374V20.9112C15.9901 21.183 15.7694 21.4014 15.5 21.4014Z" fill="#E0E0E0"/>
<path d="M15.5004 22.2074C14.7849 22.2074 14.2041 21.6266 14.2041 20.9111C14.2041 20.1956 14.7849 19.6149 15.5004 19.6149C16.2159 19.6149 16.7966 20.1956 16.7966 20.9111C16.7966 21.6266 16.2159 22.2074 15.5004 22.2074ZM15.5004 20.5975C15.3262 20.5975 15.1868 20.7392 15.1868 20.9111C15.1868 21.083 15.3285 21.2248 15.5004 21.2248C15.6723 21.2248 15.814 21.083 15.814 20.9111C15.814 20.7392 15.6723 20.5975 15.5004 20.5975Z" fill="#E0E0E0"/>
<path d="M15.5005 21.5151C15.8341 21.5151 16.1045 21.2447 16.1045 20.9111C16.1045 20.5775 15.8341 20.3071 15.5005 20.3071C15.1669 20.3071 14.8965 20.5775 14.8965 20.9111C14.8965 21.2447 15.1669 21.5151 15.5005 21.5151Z" fill="white"/>
<path d="M18.1855 19.2734C17.9137 19.2734 17.6953 19.0527 17.6953 18.7833V13.9095C17.6953 13.6377 17.916 13.4193 18.1855 13.4193C18.455 13.4193 18.6756 13.64 18.6756 13.9095V18.7833C18.6756 19.0551 18.455 19.2734 18.1855 19.2734Z" fill="#E0E0E0"/>
<path d="M18.1859 20.0772C17.4704 20.0772 16.8896 19.4964 16.8896 18.7809C16.8896 18.0654 17.4704 17.4846 18.1859 17.4846C18.9014 17.4846 19.4822 18.0654 19.4822 18.7809C19.4822 19.4964 18.9014 20.0772 18.1859 20.0772ZM18.1859 18.465C18.0117 18.465 17.8723 18.6067 17.8723 18.7786C17.8723 18.9505 18.014 19.0922 18.1859 19.0922C18.3578 19.0922 18.4995 18.9505 18.4995 18.7786C18.4995 18.6067 18.3578 18.465 18.1859 18.465Z" fill="#E0E0E0"/>
<path d="M18.1861 19.3849C18.5196 19.3849 18.79 19.1144 18.79 18.7809C18.79 18.4473 18.5196 18.1769 18.1861 18.1769C17.8525 18.1769 17.582 18.4473 17.582 18.7809C17.582 19.1144 17.8525 19.3849 18.1861 19.3849Z" fill="white"/>
<path d="M12.8144 19.2734C12.5426 19.2734 12.3242 19.0527 12.3242 18.7833V13.9095C12.3242 13.6377 12.5449 13.4193 12.8144 13.4193C13.0839 13.4193 13.3046 13.64 13.3046 13.9095V18.7833C13.3046 19.0551 13.0839 19.2734 12.8144 19.2734Z" fill="#E0E0E0"/>
<path d="M12.8148 20.0772C12.0993 20.0772 11.5186 19.4964 11.5186 18.7809C11.5186 18.0654 12.0993 17.4846 12.8148 17.4846C13.5303 17.4846 14.1111 18.0654 14.1111 18.7809C14.1111 19.4964 13.5303 20.0772 12.8148 20.0772ZM12.8148 18.465C12.6406 18.465 12.5012 18.6067 12.5012 18.7786C12.5012 18.9505 12.6429 19.0922 12.8148 19.0922C12.9867 19.0922 13.1285 18.9505 13.1285 18.7786C13.1285 18.6067 12.9867 18.465 12.8148 18.465Z" fill="#E0E0E0"/>
<path d="M12.815 19.3849C13.1485 19.3849 13.419 19.1144 13.419 18.7809C13.419 18.4473 13.1485 18.1769 12.815 18.1769C12.4814 18.1769 12.2109 18.4473 12.2109 18.7809C12.2109 19.1144 12.4814 19.3849 12.815 19.3849Z" fill="white"/>
<path d="M11.2601 16.0931H19.7393V12.5482H11.2601V16.0931Z" fill="#B4B4B6"/>
<path d="M15.4258 14.8387L7.10453 12.4297C6.84667 12.3554 6.84667 11.9883 7.10453 11.914L15.4258 9.50496C15.4745 9.49102 15.5256 9.49102 15.5744 9.50496L23.8956 11.914C24.1535 11.9883 24.1535 12.3554 23.8956 12.4297L15.5744 14.8387C15.5256 14.8526 15.4745 14.8526 15.4258 14.8387Z" fill="#B4B4B6"/>
</svg>
