<svg width="31" height="31" viewBox="0 0 31 31" fill="none" xmlns="http://www.w3.org/2000/svg">
<path d="M15.5 30.8492C23.7843 30.8492 30.5 24.1335 30.5 15.8492C30.5 7.56497 23.7843 0.849243 15.5 0.849243C7.21574 0.849243 0.5 7.56497 0.5 15.8492C0.5 24.1335 7.21574 30.8492 15.5 30.8492Z" fill="white"/>
<path d="M15.5954 19.8147L21.5703 21.5384C21.9002 21.6337 21.9002 22.1006 21.5703 22.1959L15.5954 23.9196C15.5327 23.9382 15.4676 23.9382 15.4049 23.9196L9.43002 22.1959C9.10015 22.1006 9.10015 21.6337 9.43002 21.5384L15.4049 19.8147C15.4676 19.7961 15.5327 19.7961 15.5954 19.8147Z" fill="#B4B4B6"/>
<path d="M15.5954 17.7565L21.5703 19.4802C21.9002 19.5754 21.9002 20.0424 21.5703 20.1376L15.5954 21.8613C15.5327 21.8799 15.4676 21.8799 15.4049 21.8613L9.43002 20.1376C9.10015 20.0424 9.10015 19.5754 9.43002 19.4802L15.4049 17.7565C15.4676 17.7379 15.5327 17.7379 15.5954 17.7565Z" fill="#E0E0E0"/>
<path d="M15.5954 15.6355L21.5703 17.3592C21.9002 17.4545 21.9002 17.9214 21.5703 18.0167L15.5954 19.7404C15.5327 19.759 15.4676 19.759 15.4049 19.7404L9.43002 18.0167C9.10015 17.9214 9.10015 17.4545 9.43002 17.3592L15.4049 15.6355C15.4676 15.6169 15.5327 15.6169 15.5954 15.6355Z" fill="#B4B4B6"/>
<path d="M15.5006 17.6868L18.1024 11.6143L16.9061 10.0207C16.2022 9.08214 14.7967 9.08214 14.0928 10.0207L12.8965 11.6143L15.4983 17.6868H15.5006Z" fill="#E0E0E0"/>
<path d="M13.7657 10.4644H17.2363V9.01244H13.7657V10.4644Z" fill="#B4B4B6"/>
<path d="M15.308 12.4738V17.2384L15.5008 17.6891L15.6936 17.2384V12.4738C15.8353 12.4018 15.9352 12.2578 15.9352 12.0882C15.9352 11.8489 15.7401 11.6538 15.5008 11.6538C15.2615 11.6538 15.0664 11.8489 15.0664 12.0882C15.0664 12.2578 15.164 12.4042 15.308 12.4738Z" fill="#B4B4B6"/>
<path d="M15.4701 9.95095L12.0645 8.96597C11.9577 8.93577 11.9577 8.78478 12.0645 8.75458L15.4701 7.7696C15.491 7.76495 15.512 7.76495 15.5305 7.7696L18.9362 8.75458C19.043 8.78478 19.043 8.93577 18.9362 8.96597L15.5305 9.95095C15.5096 9.9556 15.4887 9.9556 15.4701 9.95095Z" fill="#B4B4B6"/>
</svg>
