<svg width="31" height="31" viewBox="0 0 31 31" fill="none" xmlns="http://www.w3.org/2000/svg">
<path d="M15.5 30.8492C23.7843 30.8492 30.5 24.1335 30.5 15.8492C30.5 7.56497 23.7843 0.849243 15.5 0.849243C7.21575 0.849243 0.5 7.56497 0.5 15.8492C0.5 24.1335 7.21575 30.8492 15.5 30.8492Z" fill="#327DA9"/>
<path d="M20.7522 17.4753H19.9554C19.7208 17.4753 19.5187 17.3197 19.449 17.0944C19.37 16.8388 19.2678 16.5949 19.1446 16.3626C19.0331 16.1558 19.0656 15.9003 19.2329 15.7354L19.7974 15.1709C20.0042 14.9641 20.0042 14.6296 19.7974 14.4252L19.3769 14.0047C19.1702 13.7979 18.8357 13.7979 18.6312 14.0047L18.0667 14.5692C17.8994 14.7365 17.6462 14.769 17.4395 14.6575C17.2072 14.5344 16.9633 14.4321 16.7077 14.3532C16.4824 14.2858 16.3267 14.0814 16.3267 13.8467V13.0499C16.3267 12.7572 16.0898 12.5226 15.7994 12.5226H15.2047C14.912 12.5226 14.6774 12.7595 14.6774 13.0499V13.8467C14.6774 14.0814 14.5217 14.2835 14.2964 14.3532C14.0408 14.4321 13.7969 14.5344 13.5646 14.6575C13.3579 14.769 13.1024 14.7365 12.9374 14.5692L12.3729 14.0047C12.1661 13.7979 11.8316 13.7979 11.6272 14.0047L11.2067 14.4252C10.9999 14.6319 10.9999 14.9664 11.2067 15.1709L11.7712 15.7354C11.9385 15.9026 11.971 16.1558 11.8595 16.3626C11.7364 16.5949 11.6341 16.8388 11.5552 17.0944C11.4878 17.3197 11.2834 17.4753 11.0487 17.4753H10.2519C9.95924 17.4753 9.72461 17.7123 9.72461 18.0027V18.5974C9.72461 18.8901 9.96157 19.1247 10.2519 19.1247H11.0487C11.2834 19.1247 11.4855 19.2804 11.5552 19.5057C11.6341 19.7612 11.7364 20.0052 11.8595 20.2375C11.971 20.4442 11.9385 20.6998 11.7712 20.8647L11.2067 21.4292C10.9999 21.6359 10.9999 21.9705 11.2067 22.1749L11.6272 22.5954C11.8339 22.8021 12.1684 22.8021 12.3729 22.5954L12.9374 22.0309C13.1047 21.8636 13.3579 21.8311 13.5646 21.9426C13.7969 22.0657 14.0408 22.1679 14.2964 22.2469C14.5217 22.3143 14.6774 22.5187 14.6774 22.7533V23.5501C14.6774 23.8429 14.9144 24.0775 15.2047 24.0775H15.7994C16.0921 24.0775 16.3267 23.8405 16.3267 23.5501V22.7533C16.3267 22.5187 16.4824 22.3166 16.7077 22.2469C16.9633 22.1679 17.2072 22.0657 17.4395 21.9426C17.6462 21.8311 17.9018 21.8636 18.0667 22.0309L18.6312 22.5954C18.838 22.8021 19.1725 22.8021 19.3769 22.5954L19.7974 22.1749C20.0042 21.9681 20.0042 21.6336 19.7974 21.4292L19.2329 20.8647C19.0656 20.6974 19.0331 20.4442 19.1446 20.2375C19.2678 20.0052 19.37 19.7612 19.449 19.5057C19.5163 19.2804 19.7208 19.1247 19.9554 19.1247H20.7522C21.0449 19.1247 21.2795 18.8878 21.2795 18.5974V18.0027C21.2795 17.71 21.0426 17.4753 20.7522 17.4753ZM15.4998 20.7787C14.1315 20.7787 13.0233 19.6706 13.0233 18.3024C13.0233 16.9341 14.1315 15.826 15.4998 15.826C16.8681 15.826 17.9761 16.9341 17.9761 18.3024C17.9761 19.6706 16.8681 20.7787 15.4998 20.7787Z" fill="#003057"/>
<path d="M15.4991 18.3093L18.2937 11.7861L17.0091 10.074C16.2541 9.06582 14.7418 9.06582 13.9868 10.074L12.7021 11.7861L15.4968 18.3093H15.4991Z" fill="white"/>
<path d="M13.6358 10.5502H17.3643V8.9914H13.6358V10.5502Z" fill="#003057"/>
<path d="M15.2928 12.7083V17.8283L15.4995 18.3115L15.7063 17.8283V12.7083C15.8596 12.6317 15.9641 12.476 15.9641 12.2925C15.9641 12.0346 15.7551 11.8256 15.4972 11.8256C15.2394 11.8256 15.0303 12.0346 15.0303 12.2925C15.0303 12.476 15.1371 12.6317 15.2881 12.7083H15.2928Z" fill="#003057"/>
<path d="M15.4669 9.99739L11.808 8.93808C11.6942 8.90555 11.6942 8.74526 11.808 8.71042L15.4669 7.6511C15.4878 7.64413 15.511 7.64413 15.5319 7.6511L19.1907 8.71042C19.3046 8.74294 19.3046 8.90323 19.1907 8.93808L15.5319 9.99739C15.511 10.0044 15.4878 10.0044 15.4669 9.99739Z" fill="#003057"/>
</svg>
