<svg width="31" height="31" viewBox="0 0 31 31" fill="none" xmlns="http://www.w3.org/2000/svg">
<path d="M15.5 30.8492C23.7843 30.8492 30.5 24.1335 30.5 15.8492C30.5 7.56497 23.7843 0.849243 15.5 0.849243C7.21571 0.849243 0.5 7.56497 0.5 15.8492C0.5 24.1335 7.21571 30.8492 15.5 30.8492Z" fill="white"/>
<path d="M11.4414 14.3718L19.5605 14.3718V10.9755H11.4414V14.3718Z" fill="#B4B4B6"/>
<path d="M15.4274 13.1707L7.45693 10.8639C7.20837 10.7919 7.20837 10.4411 7.45693 10.3691L15.4274 8.06233C15.4739 8.0484 15.5227 8.0484 15.5714 8.06233L23.5419 10.3691C23.7905 10.4411 23.7905 10.7919 23.5419 10.8639L15.5714 13.1707C15.525 13.1847 15.4762 13.1847 15.4274 13.1707Z" fill="#B4B4B6"/>
<path d="M21.103 14.9247C20.7615 13.9606 19.9438 13.2172 18.9681 12.9896C17.2885 12.597 15.9505 13.7306 15.4975 14.1859C15.0445 13.7329 13.7063 12.5993 12.0267 12.9896C11.051 13.2172 10.2333 13.9606 9.89181 14.9247C9.40862 16.2953 9.45511 18.6671 12.4263 21.1946L15.4975 23.678L18.5685 21.1946C21.5397 18.6671 21.5862 16.293 21.103 14.9247Z" fill="#E0E0E0"/>
</svg>
