<svg width="31" height="31" viewBox="0 0 31 31" fill="none" xmlns="http://www.w3.org/2000/svg">
<path d="M15.5 30.8492C23.7843 30.8492 30.5 24.1335 30.5 15.8492C30.5 7.56497 23.7843 0.849243 15.5 0.849243C7.21573 0.849243 0.5 7.56497 0.5 15.8492C0.5 24.1335 7.21573 30.8492 15.5 30.8492Z" fill="white"/>
<path d="M15.4996 21.6569L19.5975 12.0928L17.7135 9.58161C16.6054 8.10414 14.3892 8.10414 13.2834 9.58161L11.3994 12.0928L15.4973 21.6569H15.4996Z" fill="#E0E0E0"/>
<path d="M12.7672 10.2786H18.2334V7.99268L12.7672 7.99268V10.2786Z" fill="#B4B4B6"/>
<path d="M15.1951 13.4426V20.9484L15.4994 21.657L15.8037 20.9484V13.4426C16.0267 13.3311 16.1824 13.1011 16.1824 12.834C16.1824 12.4576 15.8757 12.151 15.4994 12.151C15.1231 12.151 14.8164 12.4576 14.8164 12.834C14.8164 13.1011 14.9721 13.3311 15.1951 13.4426Z" fill="#B4B4B6"/>
<path d="M10.5215 16.7228C10.777 16.7228 10.9861 16.9319 10.9861 17.1874C10.9861 19.6754 13.0095 21.7011 15.4998 21.7011C17.9901 21.7011 20.0135 19.6777 20.0135 17.1874C20.0135 16.9319 20.2226 16.7228 20.4781 16.7228C20.7337 16.7228 20.9427 16.9319 20.9427 17.1874C20.9427 20.1888 18.5012 22.628 15.5021 22.628C12.5031 22.628 10.0615 20.1865 10.0615 17.1874C10.0615 16.9319 10.2706 16.7228 10.5261 16.7228H10.5215Z" fill="#B4B4B6"/>
<path d="M10.5222 21.701H20.4765C20.7321 21.701 20.9412 21.9101 20.9412 22.1657C20.9412 22.4212 20.7321 22.6303 20.4765 22.6303H10.5222C10.2667 22.6303 10.0576 22.4212 10.0576 22.1657C10.0576 21.9101 10.2667 21.701 10.5222 21.701Z" fill="#B4B4B6"/>
<path d="M15.5001 24.1542C16.0492 24.1542 16.4944 23.709 16.4944 23.1599C16.4944 22.6108 16.0492 22.1656 15.5001 22.1656C14.951 22.1656 14.5059 22.6108 14.5059 23.1599C14.5059 23.709 14.951 24.1542 15.5001 24.1542Z" fill="#E0E0E0"/>
<path d="M10.5216 18.1817C11.0707 18.1817 11.5159 17.7365 11.5159 17.1874C11.5159 16.6383 11.0707 16.1931 10.5216 16.1931C9.97249 16.1931 9.52734 16.6383 9.52734 17.1874C9.52734 17.7365 9.97249 18.1817 10.5216 18.1817Z" fill="#E0E0E0"/>
<path d="M20.4757 18.1817C21.0248 18.1817 21.47 17.7365 21.47 17.1874C21.47 16.6383 21.0248 16.1931 20.4757 16.1931C19.9266 16.1931 19.4814 16.6383 19.4814 17.1874C19.4814 17.7365 19.9266 18.1817 20.4757 18.1817Z" fill="#E0E0E0"/>
<path d="M20.4789 23.1622H22.4697V21.1714H20.4789V23.1622Z" fill="#E0E0E0"/>
<path d="M8.53355 23.1622H10.5244V21.1714H8.53355V23.1622Z" fill="#E0E0E0"/>
</svg>
