<svg width="12" height="12" viewBox="0 0 12 12" fill="none" xmlns="http://www.w3.org/2000/svg">
<path d="M0 4C0 1.79086 1.79086 0 4 0H8C10.2091 0 12 1.79086 12 4V8C12 10.2091 10.2091 12 8 12H4C1.79086 12 0 10.2091 0 8V4Z" fill="white"/>
<path d="M4 5.75L5.5 7.25L8 4.75" stroke="#003057" stroke-width="1.5"/>
<path d="M4 2H8V-2H4V2ZM10 4V8H14V4H10ZM8 10H4V14H8V10ZM2 8V4H-2V8H2ZM4 10C2.89543 10 2 9.10457 2 8H-2C-2 11.3137 0.686291 14 4 14V10ZM10 8C10 9.10457 9.10457 10 8 10V14C11.3137 14 14 11.3137 14 8H10ZM8 2C9.10457 2 10 2.89543 10 4H14C14 0.686292 11.3137 -2 8 -2V2ZM4 -2C0.686292 -2 -2 0.686291 -2 4H2C2 2.89543 2.89543 2 4 2V-2Z" fill="#F6BE00"/>
</svg>
