<svg width="38" height="17" viewBox="0 0 38 17" fill="none" xmlns="http://www.w3.org/2000/svg">
<path d="M0 8.5C0 3.80558 3.80558 0 8.5 0H29.5C34.1944 0 38 3.80558 38 8.5C38 13.1944 34.1944 17 29.5 17H8.5C3.80558 17 0 13.1944 0 8.5Z" fill="#F6BE00"/>
<path d="M13.15 7.96118V7.81118H13L11.2014 7.81118V5.99744V5.84744H11.0514H9.94864H9.79864V5.99744V7.81118H8H7.85V7.96118V9.0639V9.2139H8H9.79864V11.0025V11.1525H9.94864H11.0514H11.2014V11.0025V9.2139H13H13.15V9.0639V7.96118Z" fill="#003057" stroke="#003057" stroke-width="0.3"/>
<path d="M20.8135 11L20.4512 9.81055H18.6294L18.2671 11H17.1255L18.8892 5.98242H20.1846L21.9551 11H20.8135ZM20.1982 8.92188L19.8359 7.75977C19.8132 7.68229 19.7824 7.58317 19.7437 7.4624C19.7072 7.33936 19.6696 7.21517 19.6309 7.08984C19.5944 6.96224 19.5648 6.85173 19.542 6.7583C19.5192 6.85173 19.4873 6.96794 19.4463 7.10693C19.4076 7.24365 19.37 7.37354 19.3335 7.49658C19.297 7.61963 19.2708 7.70736 19.2549 7.75977L18.896 8.92188H20.1982ZM22.5874 11V6.00293H23.647V10.125H25.6738V11H22.5874ZM26.5454 11V6.00293H27.605V10.125H29.6318V11H26.5454Z" fill="#003057"/>
</svg>
