<svg width="16" height="17" viewBox="0 0 16 17" fill="none" xmlns="http://www.w3.org/2000/svg">
<path d="M0 8.40625C0 3.98797 3.58172 0.40625 8 0.40625C12.4183 0.40625 16 3.98797 16 8.40625C16 12.8245 12.4183 16.4062 8 16.4062C3.58172 16.4062 0 12.8245 0 8.40625Z" fill="#F6BE00"/>
<path d="M10.65 7.86755V7.71755H10.5L8.70136 7.71755V5.90381V5.75381H8.55136H7.44864H7.29864V5.90381V7.71755H5.5H5.35V7.86755V8.97027V9.12027H5.5H7.29864L7.29864 10.9088V11.0588H7.44864H8.55136H8.70136V10.9088V9.12027H10.5H10.65V8.97027V7.86755Z" fill="#003057" stroke="#003057" stroke-width="0.3"/>
</svg>
